<svg version="1.2" xmlns="http://www.w3.org/2000/svg" viewBox="0 0 95 83" width="95" height="83">
	<title>logo</title>
	<defs>
		<linearGradient id="g1" x2="1" gradientUnits="userSpaceOnUse" gradientTransform="matrix(0,82.409,-92.549,0,47.5,0)">
			<stop offset="0" stop-color="#f8f5ff"/>
			<stop offset=".1" stop-color="#f0ebff"/>
			<stop offset=".2" stop-color="#d6f0ff"/>
			<stop offset=".3" stop-color="#bee1ff"/>
			<stop offset=".4" stop-color="#9ec7ff"/>
			<stop offset=".5" stop-color="#7db4ff"/>
			<stop offset=".6" stop-color="#5fd4ff"/>
			<stop offset=".7" stop-color="#45a9e8"/>
			<stop offset=".8" stop-color="#345dbb"/>
			<stop offset=".9" stop-color="#2d4093"/>
			<stop offset="1" stop-color="#193059"/>
		</linearGradient>
	</defs>
	<style>
		tspan { white-space:pre } 
		.s0 { fill: url(#g1) } 
		.t1 { font-size: 424px;fill: #ffffff;font-weight: 400;font-family: "BelligerentMadness", "Belligerent Madness" } 
	</style>
	<g>
		<path class="s0" d="m66.7 0h-38.4q-1 0-2 0.3-1 0.2-1.9 0.8-0.9 0.5-1.7 1.2-0.7 0.8-1.2 1.7l-19.2 33.2q-0.5 0.9-0.8 1.9-0.3 1.1-0.3 2.1 0 1 0.3 2.1 0.3 1 0.8 1.9l19.2 33.2q0.5 0.9 1.2 1.7 0.8 0.7 1.7 1.2 0.9 0.6 1.9 0.8 1 0.3 2 0.3h38.4q1 0 2-0.3 1-0.2 1.9-0.8 0.9-0.5 1.7-1.2 0.7-0.8 1.2-1.7l19.2-33.2q0.5-0.9 0.8-1.9 0.3-1.1 0.3-2.1 0-1-0.3-2.1-0.3-1-0.8-1.9l-19.2-33.2q-0.5-0.9-1.2-1.7-0.8-0.7-1.7-1.2-0.9-0.6-1.9-0.8-1-0.3-2-0.3z"/>
	</g>
	<g>
		<text id="T" style="transform: matrix(.199,0,0,.199,19.203,66.198)" >
			<tspan x="0" y="0" class="t1">T
</tspan>
		</text>
	</g>
</svg>